<svg width="132" height="24" viewBox="0 0 132 24" fill="none" xmlns="http://www.w3.org/2000/svg">
<path d="M46.746 10.448C47.772 9.908 48.42 8.936 48.42 7.676C48.42 5.714 46.8 4.4 43.65 4.4H37.494V17H44.01C47.322 17 49.05 15.74 49.05 13.562C49.05 11.978 48.15 10.898 46.746 10.448ZM43.29 6.596C44.712 6.596 45.486 7.082 45.486 8.072C45.486 9.062 44.712 9.566 43.29 9.566H40.392V6.596H43.29ZM43.794 14.804H40.392V11.69H43.794C45.306 11.69 46.116 12.194 46.116 13.256C46.116 14.336 45.306 14.804 43.794 14.804ZM59.9337 4.4V12.05L53.6697 4.4H51.2577V17H54.1377V9.35L60.4197 17H62.8137V4.4H59.9337ZM75.0468 10.448C76.0728 9.908 76.7208 8.936 76.7208 7.676C76.7208 5.714 75.1008 4.4 71.9508 4.4H65.7948V17H72.3108C75.6228 17 77.3508 15.74 77.3508 13.562C77.3508 11.978 76.4508 10.898 75.0468 10.448ZM71.5908 6.596C73.0128 6.596 73.7868 7.082 73.7868 8.072C73.7868 9.062 73.0128 9.566 71.5908 9.566H68.6928V6.596H71.5908ZM72.0948 14.804H68.6928V11.69H72.0948C73.6068 11.69 74.4168 12.194 74.4168 13.256C74.4168 14.336 73.6068 14.804 72.0948 14.804ZM84.7785 4.4H80.2605V17H81.1785V12.878H84.7785C87.9465 12.878 89.8545 11.294 89.8545 8.648C89.8545 5.984 87.9465 4.4 84.7785 4.4ZM84.7785 12.05H81.1785V5.228H84.7785C87.4785 5.228 88.9185 6.47 88.9185 8.648C88.9185 10.808 87.4785 12.05 84.7785 12.05ZM93.229 9.656V7.604H92.365V17H93.265V12.104C93.265 9.782 94.507 8.396 96.595 8.396C96.667 8.396 96.739 8.414 96.811 8.414V7.532C95.047 7.532 93.805 8.288 93.229 9.656ZM99.7408 5.318C100.155 5.318 100.479 4.994 100.479 4.58C100.479 4.184 100.155 3.86 99.7408 3.86C99.3268 3.86 99.0028 4.202 99.0028 4.598C99.0028 4.994 99.3268 5.318 99.7408 5.318ZM99.2908 17H100.191V7.604H99.2908V17ZM115.684 7.532C113.866 7.532 112.498 8.432 111.886 9.8C111.382 8.306 110.14 7.532 108.448 7.532C106.738 7.532 105.46 8.306 104.848 9.62V7.604H103.984V17H104.884V11.996C104.884 9.764 106.198 8.342 108.322 8.342C110.158 8.342 111.256 9.458 111.256 11.582V17H112.156V11.996C112.156 9.764 113.47 8.342 115.594 8.342C117.43 8.342 118.528 9.458 118.528 11.582V17H119.428V11.51C119.428 8.882 117.952 7.532 115.684 7.532ZM131.118 12.266C131.118 9.476 129.21 7.532 126.636 7.532C124.062 7.532 122.136 9.512 122.136 12.302C122.136 15.092 124.134 17.072 126.978 17.072C128.4 17.072 129.696 16.55 130.524 15.542L130.002 14.948C129.282 15.83 128.184 16.262 126.996 16.262C124.746 16.262 123.108 14.75 123.018 12.518H131.1C131.1 12.428 131.118 12.338 131.118 12.266ZM126.636 8.324C128.634 8.324 130.11 9.782 130.236 11.816H123.036C123.18 9.764 124.638 8.324 126.636 8.324Z" fill="white"/>
<g clip-path="url(#clip0)">
<path d="M14.9359 0C14.135 0 13.3982 0.269485 12.9497 0.713342L6.28604 7.38705C5.83753 7.83091 5.10069 8.1004 4.29977 8.1004H0V11.3659H5.84668C6.6476 11.3659 7.38444 11.0964 7.83296 10.6526L14.4966 3.99472C14.9451 3.55086 15.6819 3.28137 16.4828 3.28137H19.2998V0H14.9359Z" fill="#7A077F"/>
<path d="M13.0642 24C13.8651 24 14.6019 23.7305 15.0504 23.2867L21.714 16.6288C22.1626 16.185 22.8994 15.9155 23.7003 15.9155H28.0001V12.6341H22.1534C21.3525 12.6341 20.6156 12.9036 20.1671 13.3474L13.5035 20.0053C13.055 20.4492 12.3182 20.7186 11.5173 20.7186H8.70032V23.9842H13.0642V24Z" fill="#1295C9"/>
<path d="M28 6.05554H18.3249C17.524 6.05554 16.7872 6.32503 16.3387 6.76888L9.69108 13.4267C9.24256 13.8706 8.50572 14.1401 7.7048 14.1401H0.176201C0.112128 14.1401 0.0640732 14.1401 0 14.1401V17.3898C0.0640732 17.3898 0.112128 17.3898 0.176201 17.3898H10.2357C11.0366 17.3898 11.7735 17.1203 12.222 16.6764L18.8696 10.0186C19.3181 9.5747 20.0549 9.30521 20.8558 9.30521H27.984V6.05554H28Z" fill="#5C1264"/>
</g>
<defs>
<clipPath id="clip0">
<rect width="28" height="24" fill="white"/>
</clipPath>
</defs>
</svg>
